<svg width="1728" height="747" viewBox="0 0 1728 747" fill="none" xmlns="http://www.w3.org/2000/svg">
<path d="M174.878 113.148C103.215 113.148 -16.8505 37.7161 -67.9257 0H-108V662.388C-63.211 730.749 332.818 707.176 483.686 662.388C634.554 617.6 849.07 693.033 1035.3 735.463C1221.53 777.894 1351.18 690.675 1499.69 676.532C1618.5 665.217 1788.07 711.105 1858 735.463V136.721C1820.28 136.721 1796.71 94.2901 1700.06 56.5741C1603.41 18.858 1487.9 37.7161 1414.82 44.7878C1341.75 51.8596 1035.3 141.435 943.362 136.721C851.427 132.006 717.06 49.5023 613.338 25.9298C509.616 2.35725 264.456 113.148 174.878 113.148Z" fill="#F08F00"/>
</svg>
