<svg width="1728" height="288" viewBox="0 0 1728 288" fill="none" xmlns="http://www.w3.org/2000/svg">
<path d="M201.448 43.5597C133.631 43.5597 20.0082 14.5199 -28.3261 0H-66.25V255.006C-23.8645 281.323 350.912 272.248 493.685 255.006C636.457 237.764 839.461 266.803 1015.7 283.138C1191.93 299.473 1314.62 265.896 1455.17 260.451C1567.6 256.095 1728.07 273.761 1794.25 283.138V52.6347C1758.56 52.6347 1736.25 36.2998 1644.79 21.7799C1553.32 7.25996 1444.01 14.5199 1374.86 17.2424C1305.7 19.9649 1015.7 54.4497 928.694 52.6347C841.692 50.8197 714.535 19.0574 616.38 9.98244C518.224 0.907495 286.219 43.5597 201.448 43.5597Z" fill="#F08F00"/>
</svg>
