<svg width="1728" height="43" viewBox="0 0 1728 43" fill="none" xmlns="http://www.w3.org/2000/svg">
<g clip-path="url(#clip0_3142_8462)">
<path d="M-1.17102 6.568H9.03698V27.6V28.568C9.03698 30.4453 8.94899 32.0293 8.77299 33.32C8.59699 34.6107 8.25965 35.8427 7.76099 37.016C7.29165 38.1893 6.61699 39.128 5.73699 39.832C4.85699 40.536 3.69832 41.152 2.26099 41.68C0.852985 42.208 -0.863015 42.5747 -2.88701 42.78C-4.88168 42.9853 -7.27235 43.0733 -10.059 43.044C-10.059 42.8387 -10.0737 41.8413 -10.103 40.052C-10.103 38.292 -10.103 36.576 -10.103 34.904C-8.69502 34.904 -7.56568 34.8747 -6.71502 34.816C-5.83502 34.7573 -5.02835 34.6107 -4.29502 34.376C-3.56168 34.1707 -3.01902 33.9213 -2.66702 33.628C-2.31502 33.3347 -2.02168 32.88 -1.78702 32.264C-1.52302 31.6773 -1.36168 31.0173 -1.30302 30.284C-1.21502 29.5507 -1.17102 28.5973 -1.17102 27.424V6.568ZM-1.17102 -0.384003H9.03698V4.544H-1.17102V-0.384003ZM30.0353 6.348C32.206 6.348 34.1566 6.45067 35.8873 6.656C37.618 6.832 39.3486 7.21333 41.0793 7.8C42.81 8.35733 44.2473 9.10533 45.3913 10.044C46.5353 10.9827 47.4593 12.244 48.1633 13.828C48.8673 15.3827 49.2193 17.216 49.2193 19.328C49.2193 21.7333 48.7793 23.7867 47.8993 25.488C47.0486 27.1893 45.7726 28.5387 44.0713 29.536C42.37 30.504 40.4046 31.208 38.1753 31.648C35.946 32.0587 33.3206 32.264 30.2993 32.264C27.2193 32.264 24.5646 32.044 22.3353 31.604C20.106 31.164 18.17 30.46 16.5273 29.492C14.8846 28.4947 13.6526 27.16 12.8313 25.488C12.0393 23.7867 11.6433 21.7333 11.6433 19.328C11.6433 17.2747 11.966 15.4707 12.6113 13.916C13.286 12.3613 14.166 11.1147 15.2513 10.176C16.3366 9.23733 17.686 8.47467 19.2993 7.888C20.9126 7.30133 22.57 6.90533 24.2713 6.7C26.002 6.46533 27.9233 6.348 30.0353 6.348ZM30.3873 25.048C32.9686 25.048 34.934 24.6227 36.2833 23.772C37.662 22.892 38.3513 21.4107 38.3513 19.328C38.3513 18.184 38.0873 17.216 37.5593 16.424C37.0313 15.6027 36.3273 15.0013 35.4473 14.62C34.5966 14.2387 33.746 13.9747 32.8953 13.828C32.074 13.652 31.194 13.564 30.2553 13.564C29.5806 13.564 28.906 13.6227 28.2313 13.74C27.5566 13.828 26.8673 14.004 26.1633 14.268C25.4593 14.532 24.8433 14.8693 24.3153 15.28C23.8166 15.6907 23.3913 16.2333 23.0393 16.908C22.7166 17.5533 22.5553 18.2867 22.5553 19.108C22.5553 21.132 23.186 22.628 24.4473 23.596C25.738 24.564 27.718 25.048 30.3873 25.048ZM51.7751 6.524H62.0271V32H51.7751V6.524ZM51.7751 -0.428002H62.0271V4.544H51.7751V-0.428002ZM98.4904 11.716C99.1944 13.3 99.6197 15.3387 99.7664 17.832C99.9424 20.296 100.03 24.344 100.03 29.976V32H89.7784V23.596C89.7784 23.508 89.7784 23.376 89.7784 23.2C89.7784 22.6427 89.7784 22.2173 89.7784 21.924C89.7784 21.6013 89.749 21.1467 89.6904 20.56C89.661 19.9733 89.6024 19.5187 89.5144 19.196C89.4557 18.844 89.3384 18.4187 89.1624 17.92C89.0157 17.392 88.825 16.9813 88.5904 16.688C88.385 16.3653 88.1064 16.028 87.7544 15.676C87.4317 15.324 87.0504 15.0453 86.6104 14.84C86.1704 14.6347 85.6424 14.4733 85.0264 14.356C84.4104 14.2093 83.7357 14.136 83.0024 14.136C81.125 14.136 79.6144 14.4147 78.4704 14.972C77.3557 15.5 76.3144 16.2627 75.3464 17.26V32H65.0064V6.524H75.3464V10.044C76.285 9.36933 77.0037 8.88533 77.5024 8.592C78.0304 8.26933 78.749 7.90266 79.6584 7.492C80.597 7.052 81.609 6.744 82.6944 6.568C83.7797 6.392 85.0264 6.304 86.4344 6.304C87.813 6.304 89.0304 6.36266 90.0864 6.48C91.1424 6.59733 92.2424 6.832 93.3864 7.184C94.5597 7.536 95.5717 8.09333 96.4224 8.856C97.3024 9.61867 97.9917 10.572 98.4904 11.716ZM143.776 0.627997C146.563 0.627997 149.027 0.789331 151.168 1.112C153.309 1.40533 155.289 1.91866 157.108 2.652C158.927 3.38533 160.408 4.35333 161.552 5.556C162.725 6.72933 163.635 8.22533 164.28 10.044C164.925 11.8333 165.248 13.9453 165.248 16.38C165.248 18.7853 164.955 20.868 164.368 22.628C163.811 24.388 162.989 25.884 161.904 27.116C160.848 28.3187 159.44 29.3013 157.68 30.064C155.949 30.7973 153.984 31.3253 151.784 31.648C149.584 31.9707 147.017 32.132 144.084 32.132C136.809 32.132 131.515 30.812 128.2 28.172C124.915 25.5027 123.272 21.3813 123.272 15.808C123.272 10.6453 124.959 6.832 128.332 4.368C131.705 1.87466 136.853 0.627997 143.776 0.627997ZM144.172 24.036C147.281 24.036 149.687 23.4053 151.388 22.144C153.089 20.8827 153.94 18.9613 153.94 16.38C153.94 13.8867 153.045 11.9947 151.256 10.704C149.467 9.384 147.061 8.724 144.04 8.724C142.456 8.724 141.063 8.9 139.86 9.252C138.657 9.57467 137.66 10.0733 136.868 10.748C136.105 11.4227 135.533 12.2293 135.152 13.168C134.771 14.1067 134.58 15.1773 134.58 16.38C134.58 18.6973 135.387 20.56 137 21.968C138.613 23.3467 141.004 24.036 144.172 24.036ZM195.116 6.48H205.236V32H195.116V28.084C192.534 30.6653 188.794 31.956 183.896 31.956C179.936 31.956 176.826 31.5307 174.568 30.68C172.338 29.8 170.681 28.2013 169.596 25.884C168.804 24.212 168.276 22.144 168.012 19.68C167.748 17.216 167.616 13.4907 167.616 8.504L167.66 6.48H177.78V14.884C177.78 14.9133 177.78 14.9573 177.78 15.016C177.78 15.7493 177.78 16.3067 177.78 16.688C177.809 17.0693 177.868 17.612 177.956 18.316C178.073 19.02 178.22 19.5773 178.396 19.988C178.572 20.3693 178.836 20.824 179.188 21.352C179.569 21.8507 180.009 22.232 180.508 22.496C181.036 22.76 181.696 22.9947 182.488 23.2C183.309 23.4053 184.233 23.508 185.26 23.508C188.868 23.508 192.153 22.1733 195.116 19.504V6.48ZM228.696 6.524C232.861 6.524 236.22 7.36 238.772 9.032C238.977 9.14933 239.094 9.22267 239.124 9.252L235.296 17.084C235.032 16.9373 234.65 16.7613 234.152 16.556C233.653 16.3213 232.714 16.0133 231.336 15.632C229.957 15.2507 228.652 15.016 227.42 14.928C226.334 14.8693 225.308 14.928 224.34 15.104C223.372 15.28 222.609 15.4707 222.052 15.676C221.494 15.852 220.864 16.1893 220.16 16.688C219.485 17.1573 219.06 17.48 218.884 17.656C218.737 17.8027 218.4 18.1253 217.872 18.624V32H207.62V6.48H208.368H217.872V10.044C219.749 7.69733 223.357 6.524 228.696 6.524ZM262.448 1.112H285.152C285.738 1.112 286.296 1.12667 286.824 1.156C287.352 1.18533 288.085 1.288 289.024 1.464C289.992 1.61067 290.857 1.83067 291.62 2.124C292.412 2.388 293.248 2.81333 294.128 3.4C295.008 3.95733 295.741 4.632 296.328 5.424C296.944 6.18667 297.442 7.16933 297.824 8.372C298.234 9.57467 298.44 10.9387 298.44 12.464C298.44 17.3333 296.548 20.8093 292.764 22.892L299.1 32L287.264 31.956L281.984 24.696H272.7V32H262.448V1.112ZM284.184 15.676C286.736 15.676 288.012 14.708 288.012 12.772C288.012 11.012 286.677 10.132 284.008 10.132H272.7V15.676H284.184ZM301.595 6.524H311.847V32H301.595V6.524ZM301.595 -0.428002H311.847V4.544H301.595V-0.428002ZM342.733 1.2H352.941V32H342.733V29.272C339.946 31.2373 336.001 32.22 330.897 32.22C329.665 32.22 328.55 32.176 327.553 32.088C326.556 32.0293 325.47 31.8973 324.297 31.692C323.124 31.4573 322.082 31.1493 321.173 30.768C320.264 30.3867 319.369 29.8587 318.489 29.184C317.609 28.5093 316.876 27.732 316.289 26.852C315.732 25.9427 315.277 24.828 314.925 23.508C314.573 22.1587 314.397 20.6627 314.397 19.02C314.397 16.9667 314.837 15.1333 315.717 13.52C316.626 11.8773 317.844 10.572 319.369 9.604C320.894 8.60667 322.61 7.85867 324.517 7.36C326.453 6.832 328.506 6.568 330.677 6.568C335.136 6.568 339.154 7.46267 342.733 9.252V1.2ZM342.733 21.308V17.832C341.794 15.3093 338.318 14.048 332.305 14.048C332.276 14.048 332.217 14.048 332.129 14.048C331.748 14.048 331.44 14.048 331.205 14.048C331 14.048 330.662 14.0773 330.193 14.136C329.753 14.1653 329.372 14.224 329.049 14.312C328.756 14.4 328.389 14.532 327.949 14.708C327.538 14.8547 327.186 15.06 326.893 15.324C326.629 15.588 326.365 15.896 326.101 16.248C325.837 16.6 325.632 17.04 325.485 17.568C325.368 18.096 325.309 18.6827 325.309 19.328C325.309 22.8187 327.846 24.564 332.921 24.564C335.766 24.564 337.893 24.3587 339.301 23.948C340.738 23.508 341.882 22.628 342.733 21.308ZM373.485 5.908C376.506 5.908 379.131 6.172 381.361 6.7C383.59 7.228 385.526 8.09333 387.169 9.296C388.811 10.4987 390.014 12.1413 390.777 14.224C391.539 16.2773 391.803 18.756 391.569 21.66H365.433C365.579 22.452 366.298 23.0973 367.589 23.596C368.879 24.0947 370.815 24.344 373.397 24.344C375.655 24.344 377.899 24.1973 380.129 23.904C382.387 23.6107 384.089 23.3173 385.233 23.024L386.905 22.584L391.305 29.712C391.217 29.7707 391.055 29.8587 390.821 29.976C390.586 30.064 389.985 30.24 389.017 30.504C388.078 30.768 387.007 31.0027 385.805 31.208C384.602 31.4133 382.93 31.604 380.789 31.78C378.647 31.9267 376.301 32 373.749 32C370.757 32 368.146 31.7947 365.917 31.384C363.717 30.9733 361.913 30.4013 360.505 29.668C359.126 28.9347 358.011 28.0107 357.161 26.896C356.31 25.7813 355.723 24.5933 355.401 23.332C355.078 22.0707 354.917 20.604 354.917 18.932C354.917 14.8253 356.471 11.628 359.581 9.34C362.719 7.052 367.354 5.908 373.485 5.908ZM373.573 13.784C371.959 13.784 370.581 13.9013 369.437 14.136C368.293 14.3707 367.457 14.6787 366.929 15.06C366.401 15.412 366.019 15.764 365.785 16.116C365.55 16.468 365.433 16.82 365.433 17.172H381.185C381.185 16.204 380.598 15.3973 379.425 14.752C378.281 14.1067 376.33 13.784 373.573 13.784ZM414.621 6.524C418.787 6.524 422.145 7.36 424.697 9.032C424.903 9.14933 425.02 9.22267 425.049 9.252L421.221 17.084C420.957 16.9373 420.576 16.7613 420.077 16.556C419.579 16.3213 418.64 16.0133 417.261 15.632C415.883 15.2507 414.577 15.016 413.345 14.928C412.26 14.8693 411.233 14.928 410.265 15.104C409.297 15.28 408.535 15.4707 407.977 15.676C407.42 15.852 406.789 16.1893 406.085 16.688C405.411 17.1573 404.985 17.48 404.809 17.656C404.663 17.8027 404.325 18.1253 403.797 18.624V32H393.545V6.48H394.293H403.797V10.044C405.675 7.69733 409.283 6.524 414.621 6.524ZM441.855 16.116C444.876 16.116 447.355 16.1893 449.291 16.336C451.256 16.4827 452.957 16.7173 454.395 17.04C455.861 17.3627 456.961 17.8467 457.695 18.492C458.457 19.1373 459 19.9147 459.323 20.824C459.675 21.704 459.851 22.8333 459.851 24.212C459.851 25.4147 459.763 26.4267 459.587 27.248C459.44 28.04 459.117 28.788 458.619 29.492C458.12 30.1667 457.46 30.7093 456.639 31.12C455.847 31.5307 454.761 31.8827 453.383 32.176C452.033 32.4693 450.435 32.6747 448.587 32.792C446.768 32.9093 444.568 32.968 441.987 32.968C433.04 32.968 427.775 32.2347 426.191 30.768L429.051 23.464C429.755 23.9333 431.485 24.3293 434.243 24.652C437 24.9453 439.713 25.092 442.383 25.092C442.852 25.092 443.497 25.092 444.319 25.092C446.753 25.092 448.352 25.0627 449.115 25.004C449.877 24.916 450.259 24.696 450.259 24.344C450.259 23.376 447.413 22.892 441.723 22.892C439.405 22.892 437.425 22.8333 435.783 22.716C434.169 22.5693 432.659 22.32 431.251 21.968C429.872 21.616 428.772 21.1467 427.951 20.56C427.129 19.944 426.484 19.1667 426.015 18.228C425.575 17.26 425.355 16.116 425.355 14.796C425.355 13.828 425.428 12.9627 425.575 12.2C425.751 11.4373 426.029 10.7773 426.411 10.22C426.792 9.63333 427.217 9.13466 427.687 8.724C428.156 8.284 428.772 7.91733 429.535 7.624C430.327 7.33067 431.119 7.096 431.911 6.92C432.732 6.744 433.744 6.612 434.947 6.524C436.149 6.436 437.323 6.37733 438.467 6.348C439.611 6.28933 440.989 6.26 442.603 6.26C446.181 6.26 449.085 6.37733 451.315 6.612C453.573 6.84667 455.187 7.12533 456.155 7.448C457.152 7.77066 458.208 8.22533 459.323 8.812L456.155 15.808C454.776 15.3093 452.708 14.884 449.951 14.532C447.223 14.1507 444.553 13.96 441.943 13.96C441.708 13.96 441.371 13.96 440.931 13.96C438.496 13.96 436.927 14.004 436.223 14.092C435.519 14.18 435.167 14.444 435.167 14.884C435.196 15.7053 437.425 16.116 441.855 16.116ZM527.574 17.832C527.516 17.9493 527.428 18.1107 527.31 18.316C527.193 18.5213 526.914 18.932 526.474 19.548C526.034 20.164 525.55 20.78 525.022 21.396C524.524 22.012 523.834 22.7453 522.954 23.596C522.104 24.4173 521.18 25.18 520.182 25.884L527.574 32H515.386L512.702 29.888C508.86 31.296 504.68 32 500.162 32C494.12 32 489.5 30.7533 486.302 28.26C483.838 26.3533 482.841 24.1973 483.31 21.792C483.809 19.1813 485.98 16.9813 489.822 15.192C490.644 14.8107 491.524 14.4587 492.462 14.136C490.321 12.9627 488.884 11.4373 488.15 9.56C487.3 7.24266 487.901 5.32133 489.954 3.796C492.33 2.06533 496.305 1.2 501.878 1.2C509.505 1.2 513.362 3.312 513.45 7.536C513.45 9.09067 512.864 10.44 511.69 11.584C510.517 12.728 508.889 13.7987 506.806 14.796L514.022 20.78C515.02 19.9 515.826 18.9173 516.442 17.832H527.574ZM503.682 7.712C503.682 7.21333 503.184 6.86133 502.186 6.656C501.189 6.42133 500.192 6.436 499.194 6.7C498.197 6.93467 497.698 7.36 497.698 7.976C497.698 8.328 497.933 8.724 498.402 9.164C498.872 9.604 499.356 9.956 499.854 10.22L500.558 10.616C500.588 10.616 500.632 10.6013 500.69 10.572C500.778 10.5133 500.925 10.44 501.13 10.352C501.365 10.2347 501.585 10.1173 501.79 10C501.996 9.85333 502.216 9.692 502.45 9.516C502.685 9.34 502.89 9.164 503.066 8.988C503.242 8.812 503.389 8.62133 503.506 8.416C503.624 8.18133 503.682 7.94667 503.682 7.712ZM494.442 22.188C494.442 23.0093 495 23.684 496.114 24.212C497.258 24.7107 498.681 24.9893 500.382 25.048C502.084 25.1067 503.932 24.9453 505.926 24.564L498.182 18.448C495.689 19.68 494.442 20.9267 494.442 22.188ZM582.929 1.112H594.677L579.541 32H566.121L550.897 1.112H562.645L572.809 22.98L582.929 1.112ZM608.824 5.908C611.846 5.908 614.471 6.172 616.7 6.7C618.93 7.228 620.866 8.09333 622.508 9.296C624.151 10.4987 625.354 12.1413 626.116 14.224C626.879 16.2773 627.143 18.756 626.908 21.66H600.772C600.919 22.452 601.638 23.0973 602.928 23.596C604.219 24.0947 606.155 24.344 608.736 24.344C610.995 24.344 613.239 24.1973 615.468 23.904C617.727 23.6107 619.428 23.3173 620.572 23.024L622.244 22.584L626.644 29.712C626.556 29.7707 626.395 29.8587 626.16 29.976C625.926 30.064 625.324 30.24 624.356 30.504C623.418 30.768 622.347 31.0027 621.144 31.208C619.942 31.4133 618.27 31.604 616.128 31.78C613.987 31.9267 611.64 32 609.088 32C606.096 32 603.486 31.7947 601.256 31.384C599.056 30.9733 597.252 30.4013 595.844 29.668C594.466 28.9347 593.351 28.0107 592.5 26.896C591.65 25.7813 591.063 24.5933 590.74 23.332C590.418 22.0707 590.256 20.604 590.256 18.932C590.256 14.8253 591.811 11.628 594.92 9.34C598.059 7.052 602.694 5.908 608.824 5.908ZM608.912 13.784C607.299 13.784 605.92 13.9013 604.776 14.136C603.632 14.3707 602.796 14.6787 602.268 15.06C601.74 15.412 601.359 15.764 601.124 16.116C600.89 16.468 600.772 16.82 600.772 17.172H616.524C616.524 16.204 615.938 15.3973 614.764 14.752C613.62 14.1067 611.67 13.784 608.912 13.784ZM662.111 11.716C662.815 13.3 663.241 15.3387 663.387 17.832C663.563 20.296 663.651 24.344 663.651 29.976V32H653.399V23.596C653.399 23.508 653.399 23.376 653.399 23.2C653.399 22.6427 653.399 22.2173 653.399 21.924C653.399 21.6013 653.37 21.1467 653.311 20.56C653.282 19.9733 653.223 19.5187 653.135 19.196C653.077 18.844 652.959 18.4187 652.783 17.92C652.637 17.392 652.446 16.9813 652.211 16.688C652.006 16.3653 651.727 16.028 651.375 15.676C651.053 15.324 650.671 15.0453 650.231 14.84C649.791 14.6347 649.263 14.4733 648.647 14.356C648.031 14.2093 647.357 14.136 646.623 14.136C644.746 14.136 643.235 14.4147 642.091 14.972C640.977 15.5 639.935 16.2627 638.967 17.26V32H628.627V6.524H638.967V10.044C639.906 9.36933 640.625 8.88533 641.123 8.592C641.651 8.26933 642.37 7.90266 643.279 7.492C644.218 7.052 645.23 6.744 646.315 6.568C647.401 6.392 648.647 6.304 650.055 6.304C651.434 6.304 652.651 6.36266 653.707 6.48C654.763 6.59733 655.863 6.832 657.007 7.184C658.181 7.536 659.193 8.09333 660.043 8.856C660.923 9.61867 661.613 10.572 662.111 11.716ZM693.702 1.2H703.91V32H693.702V29.272C690.915 31.2373 686.97 32.22 681.866 32.22C680.634 32.22 679.519 32.176 678.522 32.088C677.524 32.0293 676.439 31.8973 675.266 31.692C674.092 31.4573 673.051 31.1493 672.142 30.768C671.232 30.3867 670.338 29.8587 669.458 29.184C668.578 28.5093 667.844 27.732 667.258 26.852C666.7 25.9427 666.246 24.828 665.894 23.508C665.542 22.1587 665.366 20.6627 665.366 19.02C665.366 16.9667 665.806 15.1333 666.686 13.52C667.595 11.8773 668.812 10.572 670.338 9.604C671.863 8.60667 673.579 7.85867 675.486 7.36C677.422 6.832 679.475 6.568 681.646 6.568C686.104 6.568 690.123 7.46267 693.702 9.252V1.2ZM693.702 21.308V17.832C692.763 15.3093 689.287 14.048 683.274 14.048C683.244 14.048 683.186 14.048 683.098 14.048C682.716 14.048 682.408 14.048 682.174 14.048C681.968 14.048 681.631 14.0773 681.162 14.136C680.722 14.1653 680.34 14.224 680.018 14.312C679.724 14.4 679.358 14.532 678.918 14.708C678.507 14.8547 678.155 15.06 677.862 15.324C677.598 15.588 677.334 15.896 677.07 16.248C676.806 16.6 676.6 17.04 676.454 17.568C676.336 18.096 676.278 18.6827 676.278 19.328C676.278 22.8187 678.815 24.564 683.89 24.564C686.735 24.564 688.862 24.3587 690.27 23.948C691.707 23.508 692.851 22.628 693.702 21.308ZM723.895 6.348C726.065 6.348 728.016 6.45067 729.747 6.656C731.477 6.832 733.208 7.21333 734.939 7.8C736.669 8.35733 738.107 9.10533 739.251 10.044C740.395 10.9827 741.319 12.244 742.023 13.828C742.727 15.3827 743.079 17.216 743.079 19.328C743.079 21.7333 742.639 23.7867 741.759 25.488C740.908 27.1893 739.632 28.5387 737.931 29.536C736.229 30.504 734.264 31.208 732.035 31.648C729.805 32.0587 727.18 32.264 724.159 32.264C721.079 32.264 718.424 32.044 716.195 31.604C713.965 31.164 712.029 30.46 710.387 29.492C708.744 28.4947 707.512 27.16 706.691 25.488C705.899 23.7867 705.503 21.7333 705.503 19.328C705.503 17.2747 705.825 15.4707 706.471 13.916C707.145 12.3613 708.025 11.1147 709.111 10.176C710.196 9.23733 711.545 8.47467 713.159 7.888C714.772 7.30133 716.429 6.90533 718.131 6.7C719.861 6.46533 721.783 6.348 723.895 6.348ZM724.247 25.048C726.828 25.048 728.793 24.6227 730.143 23.772C731.521 22.892 732.211 21.4107 732.211 19.328C732.211 18.184 731.947 17.216 731.419 16.424C730.891 15.6027 730.187 15.0013 729.307 14.62C728.456 14.2387 727.605 13.9747 726.755 13.828C725.933 13.652 725.053 13.564 724.115 13.564C723.44 13.564 722.765 13.6227 722.091 13.74C721.416 13.828 720.727 14.004 720.023 14.268C719.319 14.532 718.703 14.8693 718.175 15.28C717.676 15.6907 717.251 16.2333 716.899 16.908C716.576 17.5533 716.415 18.2867 716.415 19.108C716.415 21.132 717.045 22.628 718.307 23.596C719.597 24.564 721.577 25.048 724.247 25.048ZM765.805 6.524C769.97 6.524 773.329 7.36 775.881 9.032C776.086 9.14933 776.204 9.22267 776.233 9.252L772.405 17.084C772.141 16.9373 771.76 16.7613 771.261 16.556C770.762 16.3213 769.824 16.0133 768.445 15.632C767.066 15.2507 765.761 15.016 764.529 14.928C763.444 14.8693 762.417 14.928 761.449 15.104C760.481 15.28 759.718 15.4707 759.161 15.676C758.604 15.852 757.973 16.1893 757.269 16.688C756.594 17.1573 756.169 17.48 755.993 17.656C755.846 17.8027 755.509 18.1253 754.981 18.624V32H744.729V6.48H745.477H754.981V10.044C756.858 7.69733 760.466 6.524 765.805 6.524ZM793.038 16.116C796.06 16.116 798.538 16.1893 800.474 16.336C802.44 16.4827 804.141 16.7173 805.578 17.04C807.045 17.3627 808.145 17.8467 808.878 18.492C809.641 19.1373 810.184 19.9147 810.506 20.824C810.858 21.704 811.034 22.8333 811.034 24.212C811.034 25.4147 810.946 26.4267 810.77 27.248C810.624 28.04 810.301 28.788 809.802 29.492C809.304 30.1667 808.644 30.7093 807.822 31.12C807.03 31.5307 805.945 31.8827 804.566 32.176C803.217 32.4693 801.618 32.6747 799.77 32.792C797.952 32.9093 795.752 32.968 793.17 32.968C784.224 32.968 778.958 32.2347 777.374 30.768L780.234 23.464C780.938 23.9333 782.669 24.3293 785.426 24.652C788.184 24.9453 790.897 25.092 793.566 25.092C794.036 25.092 794.681 25.092 795.502 25.092C797.937 25.092 799.536 25.0627 800.298 25.004C801.061 24.916 801.442 24.696 801.442 24.344C801.442 23.376 798.597 22.892 792.906 22.892C790.589 22.892 788.609 22.8333 786.966 22.716C785.353 22.5693 783.842 22.32 782.434 21.968C781.056 21.616 779.956 21.1467 779.134 20.56C778.313 19.944 777.668 19.1667 777.198 18.228C776.758 17.26 776.538 16.116 776.538 14.796C776.538 13.828 776.612 12.9627 776.758 12.2C776.934 11.4373 777.213 10.7773 777.594 10.22C777.976 9.63333 778.401 9.13466 778.87 8.724C779.34 8.284 779.956 7.91733 780.718 7.624C781.51 7.33067 782.302 7.096 783.094 6.92C783.916 6.744 784.928 6.612 786.13 6.524C787.333 6.436 788.506 6.37733 789.65 6.348C790.794 6.28933 792.173 6.26 793.786 6.26C797.365 6.26 800.269 6.37733 802.498 6.612C804.757 6.84667 806.37 7.12533 807.338 7.448C808.336 7.77066 809.392 8.22533 810.506 8.812L807.338 15.808C805.96 15.3093 803.892 14.884 801.134 14.532C798.406 14.1507 795.737 13.96 793.126 13.96C792.892 13.96 792.554 13.96 792.114 13.96C789.68 13.96 788.11 14.004 787.406 14.092C786.702 14.18 786.35 14.444 786.35 14.884C786.38 15.7053 788.609 16.116 793.038 16.116Z" fill="#F08F00"/>
<path d="M856.829 6.568H867.037V27.6V28.568C867.037 30.4453 866.949 32.0293 866.773 33.32C866.597 34.6107 866.26 35.8427 865.761 37.016C865.292 38.1893 864.617 39.128 863.737 39.832C862.857 40.536 861.698 41.152 860.261 41.68C858.853 42.208 857.137 42.5747 855.113 42.78C853.118 42.9853 850.728 43.0733 847.941 43.044C847.941 42.8387 847.926 41.8413 847.897 40.052C847.897 38.292 847.897 36.576 847.897 34.904C849.305 34.904 850.434 34.8747 851.285 34.816C852.165 34.7573 852.972 34.6107 853.705 34.376C854.438 34.1707 854.981 33.9213 855.333 33.628C855.685 33.3347 855.978 32.88 856.213 32.264C856.477 31.6773 856.638 31.0173 856.697 30.284C856.785 29.5507 856.829 28.5973 856.829 27.424V6.568ZM856.829 -0.384003H867.037V4.544H856.829V-0.384003ZM888.035 6.348C890.206 6.348 892.157 6.45067 893.887 6.656C895.618 6.832 897.349 7.21333 899.079 7.8C900.81 8.35733 902.247 9.10533 903.391 10.044C904.535 10.9827 905.459 12.244 906.163 13.828C906.867 15.3827 907.219 17.216 907.219 19.328C907.219 21.7333 906.779 23.7867 905.899 25.488C905.049 27.1893 903.773 28.5387 902.071 29.536C900.37 30.504 898.405 31.208 896.175 31.648C893.946 32.0587 891.321 32.264 888.299 32.264C885.219 32.264 882.565 32.044 880.335 31.604C878.106 31.164 876.17 30.46 874.527 29.492C872.885 28.4947 871.653 27.16 870.831 25.488C870.039 23.7867 869.643 21.7333 869.643 19.328C869.643 17.2747 869.966 15.4707 870.611 13.916C871.286 12.3613 872.166 11.1147 873.251 10.176C874.337 9.23733 875.686 8.47467 877.299 7.888C878.913 7.30133 880.57 6.90533 882.271 6.7C884.002 6.46533 885.923 6.348 888.035 6.348ZM888.387 25.048C890.969 25.048 892.934 24.6227 894.283 23.772C895.662 22.892 896.351 21.4107 896.351 19.328C896.351 18.184 896.087 17.216 895.559 16.424C895.031 15.6027 894.327 15.0013 893.447 14.62C892.597 14.2387 891.746 13.9747 890.895 13.828C890.074 13.652 889.194 13.564 888.255 13.564C887.581 13.564 886.906 13.6227 886.231 13.74C885.557 13.828 884.867 14.004 884.163 14.268C883.459 14.532 882.843 14.8693 882.315 15.28C881.817 15.6907 881.391 16.2333 881.039 16.908C880.717 17.5533 880.555 18.2867 880.555 19.108C880.555 21.132 881.186 22.628 882.447 23.596C883.738 24.564 885.718 25.048 888.387 25.048ZM909.775 6.524H920.027V32H909.775V6.524ZM909.775 -0.428002H920.027V4.544H909.775V-0.428002ZM956.49 11.716C957.194 13.3 957.62 15.3387 957.766 17.832C957.942 20.296 958.03 24.344 958.03 29.976V32H947.778V23.596C947.778 23.508 947.778 23.376 947.778 23.2C947.778 22.6427 947.778 22.2173 947.778 21.924C947.778 21.6013 947.749 21.1467 947.69 20.56C947.661 19.9733 947.602 19.5187 947.514 19.196C947.456 18.844 947.338 18.4187 947.162 17.92C947.016 17.392 946.825 16.9813 946.59 16.688C946.385 16.3653 946.106 16.028 945.754 15.676C945.432 15.324 945.05 15.0453 944.61 14.84C944.17 14.6347 943.642 14.4733 943.026 14.356C942.41 14.2093 941.736 14.136 941.002 14.136C939.125 14.136 937.614 14.4147 936.47 14.972C935.356 15.5 934.314 16.2627 933.346 17.26V32H923.006V6.524H933.346V10.044C934.285 9.36933 935.004 8.88533 935.502 8.592C936.03 8.26933 936.749 7.90266 937.658 7.492C938.597 7.052 939.609 6.744 940.694 6.568C941.78 6.392 943.026 6.304 944.434 6.304C945.813 6.304 947.03 6.36266 948.086 6.48C949.142 6.59733 950.242 6.832 951.386 7.184C952.56 7.536 953.572 8.09333 954.422 8.856C955.302 9.61867 955.992 10.572 956.49 11.716ZM1001.78 0.627997C1004.56 0.627997 1007.03 0.789331 1009.17 1.112C1011.31 1.40533 1013.29 1.91866 1015.11 2.652C1016.93 3.38533 1018.41 4.35333 1019.55 5.556C1020.73 6.72933 1021.63 8.22533 1022.28 10.044C1022.93 11.8333 1023.25 13.9453 1023.25 16.38C1023.25 18.7853 1022.95 20.868 1022.37 22.628C1021.81 24.388 1020.99 25.884 1019.9 27.116C1018.85 28.3187 1017.44 29.3013 1015.68 30.064C1013.95 30.7973 1011.98 31.3253 1009.78 31.648C1007.58 31.9707 1005.02 32.132 1002.08 32.132C994.809 32.132 989.515 30.812 986.2 28.172C982.915 25.5027 981.272 21.3813 981.272 15.808C981.272 10.6453 982.959 6.832 986.332 4.368C989.705 1.87466 994.853 0.627997 1001.78 0.627997ZM1002.17 24.036C1005.28 24.036 1007.69 23.4053 1009.39 22.144C1011.09 20.8827 1011.94 18.9613 1011.94 16.38C1011.94 13.8867 1011.05 11.9947 1009.26 10.704C1007.47 9.384 1005.06 8.724 1002.04 8.724C1000.46 8.724 999.063 8.9 997.86 9.252C996.657 9.57467 995.66 10.0733 994.868 10.748C994.105 11.4227 993.533 12.2293 993.152 13.168C992.771 14.1067 992.58 15.1773 992.58 16.38C992.58 18.6973 993.387 20.56 995 21.968C996.613 23.3467 999.004 24.036 1002.17 24.036ZM1053.12 6.48H1063.24V32H1053.12V28.084C1050.53 30.6653 1046.79 31.956 1041.9 31.956C1037.94 31.956 1034.83 31.5307 1032.57 30.68C1030.34 29.8 1028.68 28.2013 1027.6 25.884C1026.8 24.212 1026.28 22.144 1026.01 19.68C1025.75 17.216 1025.62 13.4907 1025.62 8.504L1025.66 6.48H1035.78V14.884C1035.78 14.9133 1035.78 14.9573 1035.78 15.016C1035.78 15.7493 1035.78 16.3067 1035.78 16.688C1035.81 17.0693 1035.87 17.612 1035.96 18.316C1036.07 19.02 1036.22 19.5773 1036.4 19.988C1036.57 20.3693 1036.84 20.824 1037.19 21.352C1037.57 21.8507 1038.01 22.232 1038.51 22.496C1039.04 22.76 1039.7 22.9947 1040.49 23.2C1041.31 23.4053 1042.23 23.508 1043.26 23.508C1046.87 23.508 1050.15 22.1733 1053.12 19.504V6.48ZM1086.7 6.524C1090.86 6.524 1094.22 7.36 1096.77 9.032C1096.98 9.14933 1097.09 9.22267 1097.12 9.252L1093.3 17.084C1093.03 16.9373 1092.65 16.7613 1092.15 16.556C1091.65 16.3213 1090.71 16.0133 1089.34 15.632C1087.96 15.2507 1086.65 15.016 1085.42 14.928C1084.33 14.8693 1083.31 14.928 1082.34 15.104C1081.37 15.28 1080.61 15.4707 1080.05 15.676C1079.49 15.852 1078.86 16.1893 1078.16 16.688C1077.48 17.1573 1077.06 17.48 1076.88 17.656C1076.74 17.8027 1076.4 18.1253 1075.87 18.624V32H1065.62V6.48H1066.37H1075.87V10.044C1077.75 7.69733 1081.36 6.524 1086.7 6.524ZM1120.45 1.112H1143.15C1143.74 1.112 1144.3 1.12667 1144.82 1.156C1145.35 1.18533 1146.09 1.288 1147.02 1.464C1147.99 1.61067 1148.86 1.83067 1149.62 2.124C1150.41 2.388 1151.25 2.81333 1152.13 3.4C1153.01 3.95733 1153.74 4.632 1154.33 5.424C1154.94 6.18667 1155.44 7.16933 1155.82 8.372C1156.23 9.57467 1156.44 10.9387 1156.44 12.464C1156.44 17.3333 1154.55 20.8093 1150.76 22.892L1157.1 32L1145.26 31.956L1139.98 24.696H1130.7V32H1120.45V1.112ZM1142.18 15.676C1144.74 15.676 1146.01 14.708 1146.01 12.772C1146.01 11.012 1144.68 10.132 1142.01 10.132H1130.7V15.676H1142.18ZM1159.6 6.524H1169.85V32H1159.6V6.524ZM1159.6 -0.428002H1169.85V4.544H1159.6V-0.428002ZM1200.73 1.2H1210.94V32H1200.73V29.272C1197.95 31.2373 1194 32.22 1188.9 32.22C1187.66 32.22 1186.55 32.176 1185.55 32.088C1184.56 32.0293 1183.47 31.8973 1182.3 31.692C1181.12 31.4573 1180.08 31.1493 1179.17 30.768C1178.26 30.3867 1177.37 29.8587 1176.49 29.184C1175.61 28.5093 1174.88 27.732 1174.29 26.852C1173.73 25.9427 1173.28 24.828 1172.92 23.508C1172.57 22.1587 1172.4 20.6627 1172.4 19.02C1172.4 16.9667 1172.84 15.1333 1173.72 13.52C1174.63 11.8773 1175.84 10.572 1177.37 9.604C1178.89 8.60667 1180.61 7.85867 1182.52 7.36C1184.45 6.832 1186.51 6.568 1188.68 6.568C1193.14 6.568 1197.15 7.46267 1200.73 9.252V1.2ZM1200.73 21.308V17.832C1199.79 15.3093 1196.32 14.048 1190.3 14.048C1190.28 14.048 1190.22 14.048 1190.13 14.048C1189.75 14.048 1189.44 14.048 1189.2 14.048C1189 14.048 1188.66 14.0773 1188.19 14.136C1187.75 14.1653 1187.37 14.224 1187.05 14.312C1186.76 14.4 1186.39 14.532 1185.95 14.708C1185.54 14.8547 1185.19 15.06 1184.89 15.324C1184.63 15.588 1184.36 15.896 1184.1 16.248C1183.84 16.6 1183.63 17.04 1183.48 17.568C1183.37 18.096 1183.31 18.6827 1183.31 19.328C1183.31 22.8187 1185.85 24.564 1190.92 24.564C1193.77 24.564 1195.89 24.3587 1197.3 23.948C1198.74 23.508 1199.88 22.628 1200.73 21.308ZM1231.48 5.908C1234.51 5.908 1237.13 6.172 1239.36 6.7C1241.59 7.228 1243.53 8.09333 1245.17 9.296C1246.81 10.4987 1248.01 12.1413 1248.78 14.224C1249.54 16.2773 1249.8 18.756 1249.57 21.66H1223.43C1223.58 22.452 1224.3 23.0973 1225.59 23.596C1226.88 24.0947 1228.82 24.344 1231.4 24.344C1233.66 24.344 1235.9 24.1973 1238.13 23.904C1240.39 23.6107 1242.09 23.3173 1243.23 23.024L1244.9 22.584L1249.3 29.712C1249.22 29.7707 1249.06 29.8587 1248.82 29.976C1248.59 30.064 1247.98 30.24 1247.02 30.504C1246.08 30.768 1245.01 31.0027 1243.8 31.208C1242.6 31.4133 1240.93 31.604 1238.79 31.78C1236.65 31.9267 1234.3 32 1231.75 32C1228.76 32 1226.15 31.7947 1223.92 31.384C1221.72 30.9733 1219.91 30.4013 1218.5 29.668C1217.13 28.9347 1216.01 28.0107 1215.16 26.896C1214.31 25.7813 1213.72 24.5933 1213.4 23.332C1213.08 22.0707 1212.92 20.604 1212.92 18.932C1212.92 14.8253 1214.47 11.628 1217.58 9.34C1220.72 7.052 1225.35 5.908 1231.48 5.908ZM1231.57 13.784C1229.96 13.784 1228.58 13.9013 1227.44 14.136C1226.29 14.3707 1225.46 14.6787 1224.93 15.06C1224.4 15.412 1224.02 15.764 1223.78 16.116C1223.55 16.468 1223.43 16.82 1223.43 17.172H1239.18C1239.18 16.204 1238.6 15.3973 1237.42 14.752C1236.28 14.1067 1234.33 13.784 1231.57 13.784ZM1272.62 6.524C1276.79 6.524 1280.15 7.36 1282.7 9.032C1282.9 9.14933 1283.02 9.22267 1283.05 9.252L1279.22 17.084C1278.96 16.9373 1278.58 16.7613 1278.08 16.556C1277.58 16.3213 1276.64 16.0133 1275.26 15.632C1273.88 15.2507 1272.58 15.016 1271.35 14.928C1270.26 14.8693 1269.23 14.928 1268.27 15.104C1267.3 15.28 1266.53 15.4707 1265.98 15.676C1265.42 15.852 1264.79 16.1893 1264.09 16.688C1263.41 17.1573 1262.99 17.48 1262.81 17.656C1262.66 17.8027 1262.33 18.1253 1261.8 18.624V32H1251.55V6.48H1252.29H1261.8V10.044C1263.67 7.69733 1267.28 6.524 1272.62 6.524ZM1299.85 16.116C1302.88 16.116 1305.35 16.1893 1307.29 16.336C1309.26 16.4827 1310.96 16.7173 1312.39 17.04C1313.86 17.3627 1314.96 17.8467 1315.69 18.492C1316.46 19.1373 1317 19.9147 1317.32 20.824C1317.67 21.704 1317.85 22.8333 1317.85 24.212C1317.85 25.4147 1317.76 26.4267 1317.59 27.248C1317.44 28.04 1317.12 28.788 1316.62 29.492C1316.12 30.1667 1315.46 30.7093 1314.64 31.12C1313.85 31.5307 1312.76 31.8827 1311.38 32.176C1310.03 32.4693 1308.43 32.6747 1306.59 32.792C1304.77 32.9093 1302.57 32.968 1299.99 32.968C1291.04 32.968 1285.77 32.2347 1284.19 30.768L1287.05 23.464C1287.75 23.9333 1289.49 24.3293 1292.24 24.652C1295 24.9453 1297.71 25.092 1300.38 25.092C1300.85 25.092 1301.5 25.092 1302.32 25.092C1304.75 25.092 1306.35 25.0627 1307.11 25.004C1307.88 24.916 1308.26 24.696 1308.26 24.344C1308.26 23.376 1305.41 22.892 1299.72 22.892C1297.41 22.892 1295.43 22.8333 1293.78 22.716C1292.17 22.5693 1290.66 22.32 1289.25 21.968C1287.87 21.616 1286.77 21.1467 1285.95 20.56C1285.13 19.944 1284.48 19.1667 1284.01 18.228C1283.57 17.26 1283.35 16.116 1283.35 14.796C1283.35 13.828 1283.43 12.9627 1283.57 12.2C1283.75 11.4373 1284.03 10.7773 1284.41 10.22C1284.79 9.63333 1285.22 9.13466 1285.69 8.724C1286.16 8.284 1286.77 7.91733 1287.53 7.624C1288.33 7.33067 1289.12 7.096 1289.91 6.92C1290.73 6.744 1291.74 6.612 1292.95 6.524C1294.15 6.436 1295.32 6.37733 1296.47 6.348C1297.61 6.28933 1298.99 6.26 1300.6 6.26C1304.18 6.26 1307.09 6.37733 1309.31 6.612C1311.57 6.84667 1313.19 7.12533 1314.15 7.448C1315.15 7.77066 1316.21 8.22533 1317.32 8.812L1314.15 15.808C1312.78 15.3093 1310.71 14.884 1307.95 14.532C1305.22 14.1507 1302.55 13.96 1299.94 13.96C1299.71 13.96 1299.37 13.96 1298.93 13.96C1296.5 13.96 1294.93 14.004 1294.22 14.092C1293.52 14.18 1293.17 14.444 1293.17 14.884C1293.2 15.7053 1295.43 16.116 1299.85 16.116ZM1385.57 17.832C1385.52 17.9493 1385.43 18.1107 1385.31 18.316C1385.19 18.5213 1384.91 18.932 1384.47 19.548C1384.03 20.164 1383.55 20.78 1383.02 21.396C1382.52 22.012 1381.83 22.7453 1380.95 23.596C1380.1 24.4173 1379.18 25.18 1378.18 25.884L1385.57 32H1373.39L1370.7 29.888C1366.86 31.296 1362.68 32 1358.16 32C1352.12 32 1347.5 30.7533 1344.3 28.26C1341.84 26.3533 1340.84 24.1973 1341.31 21.792C1341.81 19.1813 1343.98 16.9813 1347.82 15.192C1348.64 14.8107 1349.52 14.4587 1350.46 14.136C1348.32 12.9627 1346.88 11.4373 1346.15 9.56C1345.3 7.24266 1345.9 5.32133 1347.95 3.796C1350.33 2.06533 1354.3 1.2 1359.88 1.2C1367.5 1.2 1371.36 3.312 1371.45 7.536C1371.45 9.09067 1370.86 10.44 1369.69 11.584C1368.52 12.728 1366.89 13.7987 1364.81 14.796L1372.02 20.78C1373.02 19.9 1373.83 18.9173 1374.44 17.832H1385.57ZM1361.68 7.712C1361.68 7.21333 1361.18 6.86133 1360.19 6.656C1359.19 6.42133 1358.19 6.436 1357.19 6.7C1356.2 6.93467 1355.7 7.36 1355.7 7.976C1355.7 8.328 1355.93 8.724 1356.4 9.164C1356.87 9.604 1357.36 9.956 1357.85 10.22L1358.56 10.616C1358.59 10.616 1358.63 10.6013 1358.69 10.572C1358.78 10.5133 1358.92 10.44 1359.13 10.352C1359.36 10.2347 1359.58 10.1173 1359.79 10C1360 9.85333 1360.22 9.692 1360.45 9.516C1360.68 9.34 1360.89 9.164 1361.07 8.988C1361.24 8.812 1361.39 8.62133 1361.51 8.416C1361.62 8.18133 1361.68 7.94667 1361.68 7.712ZM1352.44 22.188C1352.44 23.0093 1353 23.684 1354.11 24.212C1355.26 24.7107 1356.68 24.9893 1358.38 25.048C1360.08 25.1067 1361.93 24.9453 1363.93 24.564L1356.18 18.448C1353.69 19.68 1352.44 20.9267 1352.44 22.188ZM1440.93 1.112H1452.68L1437.54 32H1424.12L1408.9 1.112H1420.64L1430.81 22.98L1440.93 1.112ZM1466.82 5.908C1469.85 5.908 1472.47 6.172 1474.7 6.7C1476.93 7.228 1478.87 8.09333 1480.51 9.296C1482.15 10.4987 1483.35 12.1413 1484.12 14.224C1484.88 16.2773 1485.14 18.756 1484.91 21.66H1458.77C1458.92 22.452 1459.64 23.0973 1460.93 23.596C1462.22 24.0947 1464.16 24.344 1466.74 24.344C1469 24.344 1471.24 24.1973 1473.47 23.904C1475.73 23.6107 1477.43 23.3173 1478.57 23.024L1480.24 22.584L1484.64 29.712C1484.56 29.7707 1484.4 29.8587 1484.16 29.976C1483.93 30.064 1483.32 30.24 1482.36 30.504C1481.42 30.768 1480.35 31.0027 1479.14 31.208C1477.94 31.4133 1476.27 31.604 1474.13 31.78C1471.99 31.9267 1469.64 32 1467.09 32C1464.1 32 1461.49 31.7947 1459.26 31.384C1457.06 30.9733 1455.25 30.4013 1453.84 29.668C1452.47 28.9347 1451.35 28.0107 1450.5 26.896C1449.65 25.7813 1449.06 24.5933 1448.74 23.332C1448.42 22.0707 1448.26 20.604 1448.26 18.932C1448.26 14.8253 1449.81 11.628 1452.92 9.34C1456.06 7.052 1460.69 5.908 1466.82 5.908ZM1466.91 13.784C1465.3 13.784 1463.92 13.9013 1462.78 14.136C1461.63 14.3707 1460.8 14.6787 1460.27 15.06C1459.74 15.412 1459.36 15.764 1459.12 16.116C1458.89 16.468 1458.77 16.82 1458.77 17.172H1474.52C1474.52 16.204 1473.94 15.3973 1472.76 14.752C1471.62 14.1067 1469.67 13.784 1466.91 13.784ZM1520.11 11.716C1520.82 13.3 1521.24 15.3387 1521.39 17.832C1521.56 20.296 1521.65 24.344 1521.65 29.976V32H1511.4V23.596C1511.4 23.508 1511.4 23.376 1511.4 23.2C1511.4 22.6427 1511.4 22.2173 1511.4 21.924C1511.4 21.6013 1511.37 21.1467 1511.31 20.56C1511.28 19.9733 1511.22 19.5187 1511.14 19.196C1511.08 18.844 1510.96 18.4187 1510.78 17.92C1510.64 17.392 1510.45 16.9813 1510.21 16.688C1510.01 16.3653 1509.73 16.028 1509.38 15.676C1509.05 15.324 1508.67 15.0453 1508.23 14.84C1507.79 14.6347 1507.26 14.4733 1506.65 14.356C1506.03 14.2093 1505.36 14.136 1504.62 14.136C1502.75 14.136 1501.24 14.4147 1500.09 14.972C1498.98 15.5 1497.94 16.2627 1496.97 17.26V32H1486.63V6.524H1496.97V10.044C1497.91 9.36933 1498.62 8.88533 1499.12 8.592C1499.65 8.26933 1500.37 7.90266 1501.28 7.492C1502.22 7.052 1503.23 6.744 1504.32 6.568C1505.4 6.392 1506.65 6.304 1508.06 6.304C1509.43 6.304 1510.65 6.36266 1511.71 6.48C1512.76 6.59733 1513.86 6.832 1515.01 7.184C1516.18 7.536 1517.19 8.09333 1518.04 8.856C1518.92 9.61867 1519.61 10.572 1520.11 11.716ZM1551.7 1.2H1561.91V32H1551.7V29.272C1548.92 31.2373 1544.97 32.22 1539.87 32.22C1538.63 32.22 1537.52 32.176 1536.52 32.088C1535.52 32.0293 1534.44 31.8973 1533.27 31.692C1532.09 31.4573 1531.05 31.1493 1530.14 30.768C1529.23 30.3867 1528.34 29.8587 1527.46 29.184C1526.58 28.5093 1525.84 27.732 1525.26 26.852C1524.7 25.9427 1524.25 24.828 1523.89 23.508C1523.54 22.1587 1523.37 20.6627 1523.37 19.02C1523.37 16.9667 1523.81 15.1333 1524.69 13.52C1525.6 11.8773 1526.81 10.572 1528.34 9.604C1529.86 8.60667 1531.58 7.85867 1533.49 7.36C1535.42 6.832 1537.48 6.568 1539.65 6.568C1544.1 6.568 1548.12 7.46267 1551.7 9.252V1.2ZM1551.7 21.308V17.832C1550.76 15.3093 1547.29 14.048 1541.27 14.048C1541.24 14.048 1541.19 14.048 1541.1 14.048C1540.72 14.048 1540.41 14.048 1540.17 14.048C1539.97 14.048 1539.63 14.0773 1539.16 14.136C1538.72 14.1653 1538.34 14.224 1538.02 14.312C1537.72 14.4 1537.36 14.532 1536.92 14.708C1536.51 14.8547 1536.16 15.06 1535.86 15.324C1535.6 15.588 1535.33 15.896 1535.07 16.248C1534.81 16.6 1534.6 17.04 1534.45 17.568C1534.34 18.096 1534.28 18.6827 1534.28 19.328C1534.28 22.8187 1536.82 24.564 1541.89 24.564C1544.74 24.564 1546.86 24.3587 1548.27 23.948C1549.71 23.508 1550.85 22.628 1551.7 21.308ZM1581.89 6.348C1584.07 6.348 1586.02 6.45067 1587.75 6.656C1589.48 6.832 1591.21 7.21333 1592.94 7.8C1594.67 8.35733 1596.11 9.10533 1597.25 10.044C1598.39 10.9827 1599.32 12.244 1600.02 13.828C1600.73 15.3827 1601.08 17.216 1601.08 19.328C1601.08 21.7333 1600.64 23.7867 1599.76 25.488C1598.91 27.1893 1597.63 28.5387 1595.93 29.536C1594.23 30.504 1592.26 31.208 1590.03 31.648C1587.81 32.0587 1585.18 32.264 1582.16 32.264C1579.08 32.264 1576.42 32.044 1574.19 31.604C1571.97 31.164 1570.03 30.46 1568.39 29.492C1566.74 28.4947 1565.51 27.16 1564.69 25.488C1563.9 23.7867 1563.5 21.7333 1563.5 19.328C1563.5 17.2747 1563.83 15.4707 1564.47 13.916C1565.15 12.3613 1566.03 11.1147 1567.11 10.176C1568.2 9.23733 1569.55 8.47467 1571.16 7.888C1572.77 7.30133 1574.43 6.90533 1576.13 6.7C1577.86 6.46533 1579.78 6.348 1581.89 6.348ZM1582.25 25.048C1584.83 25.048 1586.79 24.6227 1588.14 23.772C1589.52 22.892 1590.21 21.4107 1590.21 19.328C1590.21 18.184 1589.95 17.216 1589.42 16.424C1588.89 15.6027 1588.19 15.0013 1587.31 14.62C1586.46 14.2387 1585.61 13.9747 1584.75 13.828C1583.93 13.652 1583.05 13.564 1582.11 13.564C1581.44 13.564 1580.77 13.6227 1580.09 13.74C1579.42 13.828 1578.73 14.004 1578.02 14.268C1577.32 14.532 1576.7 14.8693 1576.17 15.28C1575.68 15.6907 1575.25 16.2333 1574.9 16.908C1574.58 17.5533 1574.41 18.2867 1574.41 19.108C1574.41 21.132 1575.05 22.628 1576.31 23.596C1577.6 24.564 1579.58 25.048 1582.25 25.048ZM1623.81 6.524C1627.97 6.524 1631.33 7.36 1633.88 9.032C1634.09 9.14933 1634.2 9.22267 1634.23 9.252L1630.41 17.084C1630.14 16.9373 1629.76 16.7613 1629.26 16.556C1628.76 16.3213 1627.82 16.0133 1626.45 15.632C1625.07 15.2507 1623.76 15.016 1622.53 14.928C1621.44 14.8693 1620.42 14.928 1619.45 15.104C1618.48 15.28 1617.72 15.4707 1617.16 15.676C1616.6 15.852 1615.97 16.1893 1615.27 16.688C1614.59 17.1573 1614.17 17.48 1613.99 17.656C1613.85 17.8027 1613.51 18.1253 1612.98 18.624V32H1602.73V6.48H1603.48H1612.98V10.044C1614.86 7.69733 1618.47 6.524 1623.81 6.524ZM1651.04 16.116C1654.06 16.116 1656.54 16.1893 1658.47 16.336C1660.44 16.4827 1662.14 16.7173 1663.58 17.04C1665.04 17.3627 1666.14 17.8467 1666.88 18.492C1667.64 19.1373 1668.18 19.9147 1668.51 20.824C1668.86 21.704 1669.03 22.8333 1669.03 24.212C1669.03 25.4147 1668.95 26.4267 1668.77 27.248C1668.62 28.04 1668.3 28.788 1667.8 29.492C1667.3 30.1667 1666.64 30.7093 1665.82 31.12C1665.03 31.5307 1663.94 31.8827 1662.57 32.176C1661.22 32.4693 1659.62 32.6747 1657.77 32.792C1655.95 32.9093 1653.75 32.968 1651.17 32.968C1642.22 32.968 1636.96 32.2347 1635.37 30.768L1638.23 23.464C1638.94 23.9333 1640.67 24.3293 1643.43 24.652C1646.18 24.9453 1648.9 25.092 1651.57 25.092C1652.04 25.092 1652.68 25.092 1653.5 25.092C1655.94 25.092 1657.54 25.0627 1658.3 25.004C1659.06 24.916 1659.44 24.696 1659.44 24.344C1659.44 23.376 1656.6 22.892 1650.91 22.892C1648.59 22.892 1646.61 22.8333 1644.97 22.716C1643.35 22.5693 1641.84 22.32 1640.43 21.968C1639.06 21.616 1637.96 21.1467 1637.13 20.56C1636.31 19.944 1635.67 19.1667 1635.2 18.228C1634.76 17.26 1634.54 16.116 1634.54 14.796C1634.54 13.828 1634.61 12.9627 1634.76 12.2C1634.93 11.4373 1635.21 10.7773 1635.59 10.22C1635.98 9.63333 1636.4 9.13466 1636.87 8.724C1637.34 8.284 1637.96 7.91733 1638.72 7.624C1639.51 7.33067 1640.3 7.096 1641.09 6.92C1641.92 6.744 1642.93 6.612 1644.13 6.524C1645.33 6.436 1646.51 6.37733 1647.65 6.348C1648.79 6.28933 1650.17 6.26 1651.79 6.26C1655.36 6.26 1658.27 6.37733 1660.5 6.612C1662.76 6.84667 1664.37 7.12533 1665.34 7.448C1666.34 7.77066 1667.39 8.22533 1668.51 8.812L1665.34 15.808C1663.96 15.3093 1661.89 14.884 1659.13 14.532C1656.41 14.1507 1653.74 13.96 1651.13 13.96C1650.89 13.96 1650.55 13.96 1650.11 13.96C1647.68 13.96 1646.11 14.004 1645.41 14.092C1644.7 14.18 1644.35 14.444 1644.35 14.884C1644.38 15.7053 1646.61 16.116 1651.04 16.116Z" fill="#F08F00"/>
<path d="M1714.83 6.568H1725.04V27.6V28.568C1725.04 30.4453 1724.95 32.0293 1724.77 33.32C1724.6 34.6107 1724.26 35.8427 1723.76 37.016C1723.29 38.1893 1722.62 39.128 1721.74 39.832C1720.86 40.536 1719.7 41.152 1718.26 41.68C1716.85 42.208 1715.14 42.5747 1713.11 42.78C1711.12 42.9853 1708.73 43.0733 1705.94 43.044C1705.94 42.8387 1705.93 41.8413 1705.9 40.052C1705.9 38.292 1705.9 36.576 1705.9 34.904C1707.3 34.904 1708.43 34.8747 1709.28 34.816C1710.16 34.7573 1710.97 34.6107 1711.7 34.376C1712.44 34.1707 1712.98 33.9213 1713.33 33.628C1713.68 33.3347 1713.98 32.88 1714.21 32.264C1714.48 31.6773 1714.64 31.0173 1714.7 30.284C1714.78 29.5507 1714.83 28.5973 1714.83 27.424V6.568ZM1714.83 -0.384003H1725.04V4.544H1714.83V-0.384003ZM1746.04 6.348C1748.21 6.348 1750.16 6.45067 1751.89 6.656C1753.62 6.832 1755.35 7.21333 1757.08 7.8C1758.81 8.35733 1760.25 9.10533 1761.39 10.044C1762.54 10.9827 1763.46 12.244 1764.16 13.828C1764.87 15.3827 1765.22 17.216 1765.22 19.328C1765.22 21.7333 1764.78 23.7867 1763.9 25.488C1763.05 27.1893 1761.77 28.5387 1760.07 29.536C1758.37 30.504 1756.4 31.208 1754.18 31.648C1751.95 32.0587 1749.32 32.264 1746.3 32.264C1743.22 32.264 1740.56 32.044 1738.34 31.604C1736.11 31.164 1734.17 30.46 1732.53 29.492C1730.88 28.4947 1729.65 27.16 1728.83 25.488C1728.04 23.7867 1727.64 21.7333 1727.64 19.328C1727.64 17.2747 1727.97 15.4707 1728.61 13.916C1729.29 12.3613 1730.17 11.1147 1731.25 10.176C1732.34 9.23733 1733.69 8.47467 1735.3 7.888C1736.91 7.30133 1738.57 6.90533 1740.27 6.7C1742 6.46533 1743.92 6.348 1746.04 6.348ZM1746.39 25.048C1748.97 25.048 1750.93 24.6227 1752.28 23.772C1753.66 22.892 1754.35 21.4107 1754.35 19.328C1754.35 18.184 1754.09 17.216 1753.56 16.424C1753.03 15.6027 1752.33 15.0013 1751.45 14.62C1750.6 14.2387 1749.75 13.9747 1748.9 13.828C1748.07 13.652 1747.19 13.564 1746.26 13.564C1745.58 13.564 1744.91 13.6227 1744.23 13.74C1743.56 13.828 1742.87 14.004 1742.16 14.268C1741.46 14.532 1740.84 14.8693 1740.32 15.28C1739.82 15.6907 1739.39 16.2333 1739.04 16.908C1738.72 17.5533 1738.56 18.2867 1738.56 19.108C1738.56 21.132 1739.19 22.628 1740.45 23.596C1741.74 24.564 1743.72 25.048 1746.39 25.048ZM1767.78 6.524H1778.03V32H1767.78V6.524ZM1767.78 -0.428002H1778.03V4.544H1767.78V-0.428002ZM1814.49 11.716C1815.19 13.3 1815.62 15.3387 1815.77 17.832C1815.94 20.296 1816.03 24.344 1816.03 29.976V32H1805.78V23.596C1805.78 23.508 1805.78 23.376 1805.78 23.2C1805.78 22.6427 1805.78 22.2173 1805.78 21.924C1805.78 21.6013 1805.75 21.1467 1805.69 20.56C1805.66 19.9733 1805.6 19.5187 1805.51 19.196C1805.46 18.844 1805.34 18.4187 1805.16 17.92C1805.02 17.392 1804.83 16.9813 1804.59 16.688C1804.39 16.3653 1804.11 16.028 1803.75 15.676C1803.43 15.324 1803.05 15.0453 1802.61 14.84C1802.17 14.6347 1801.64 14.4733 1801.03 14.356C1800.41 14.2093 1799.74 14.136 1799 14.136C1797.13 14.136 1795.61 14.4147 1794.47 14.972C1793.36 15.5 1792.31 16.2627 1791.35 17.26V32H1781.01V6.524H1791.35V10.044C1792.29 9.36933 1793 8.88533 1793.5 8.592C1794.03 8.26933 1794.75 7.90266 1795.66 7.492C1796.6 7.052 1797.61 6.744 1798.69 6.568C1799.78 6.392 1801.03 6.304 1802.43 6.304C1803.81 6.304 1805.03 6.36266 1806.09 6.48C1807.14 6.59733 1808.24 6.832 1809.39 7.184C1810.56 7.536 1811.57 8.09333 1812.42 8.856C1813.3 9.61867 1813.99 10.572 1814.49 11.716ZM1859.78 0.627997C1862.56 0.627997 1865.03 0.789331 1867.17 1.112C1869.31 1.40533 1871.29 1.91866 1873.11 2.652C1874.93 3.38533 1876.41 4.35333 1877.55 5.556C1878.73 6.72933 1879.63 8.22533 1880.28 10.044C1880.93 11.8333 1881.25 13.9453 1881.25 16.38C1881.25 18.7853 1880.95 20.868 1880.37 22.628C1879.81 24.388 1878.99 25.884 1877.9 27.116C1876.85 28.3187 1875.44 29.3013 1873.68 30.064C1871.95 30.7973 1869.98 31.3253 1867.78 31.648C1865.58 31.9707 1863.02 32.132 1860.08 32.132C1852.81 32.132 1847.51 30.812 1844.2 28.172C1840.91 25.5027 1839.27 21.3813 1839.27 15.808C1839.27 10.6453 1840.96 6.832 1844.33 4.368C1847.71 1.87466 1852.85 0.627997 1859.78 0.627997ZM1860.17 24.036C1863.28 24.036 1865.69 23.4053 1867.39 22.144C1869.09 20.8827 1869.94 18.9613 1869.94 16.38C1869.94 13.8867 1869.05 11.9947 1867.26 10.704C1865.47 9.384 1863.06 8.724 1860.04 8.724C1858.46 8.724 1857.06 8.9 1855.86 9.252C1854.66 9.57467 1853.66 10.0733 1852.87 10.748C1852.11 11.4227 1851.53 12.2293 1851.15 13.168C1850.77 14.1067 1850.58 15.1773 1850.58 16.38C1850.58 18.6973 1851.39 20.56 1853 21.968C1854.61 23.3467 1857 24.036 1860.17 24.036ZM1911.12 6.48H1921.24V32H1911.12V28.084C1908.53 30.6653 1904.79 31.956 1899.9 31.956C1895.94 31.956 1892.83 31.5307 1890.57 30.68C1888.34 29.8 1886.68 28.2013 1885.6 25.884C1884.8 24.212 1884.28 22.144 1884.01 19.68C1883.75 17.216 1883.62 13.4907 1883.62 8.504L1883.66 6.48H1893.78V14.884C1893.78 14.9133 1893.78 14.9573 1893.78 15.016C1893.78 15.7493 1893.78 16.3067 1893.78 16.688C1893.81 17.0693 1893.87 17.612 1893.96 18.316C1894.07 19.02 1894.22 19.5773 1894.4 19.988C1894.57 20.3693 1894.84 20.824 1895.19 21.352C1895.57 21.8507 1896.01 22.232 1896.51 22.496C1897.04 22.76 1897.7 22.9947 1898.49 23.2C1899.31 23.4053 1900.23 23.508 1901.26 23.508C1904.87 23.508 1908.15 22.1733 1911.12 19.504V6.48ZM1944.7 6.524C1948.86 6.524 1952.22 7.36 1954.77 9.032C1954.98 9.14933 1955.09 9.22267 1955.12 9.252L1951.3 17.084C1951.03 16.9373 1950.65 16.7613 1950.15 16.556C1949.65 16.3213 1948.71 16.0133 1947.34 15.632C1945.96 15.2507 1944.65 15.016 1943.42 14.928C1942.33 14.8693 1941.31 14.928 1940.34 15.104C1939.37 15.28 1938.61 15.4707 1938.05 15.676C1937.49 15.852 1936.86 16.1893 1936.16 16.688C1935.48 17.1573 1935.06 17.48 1934.88 17.656C1934.74 17.8027 1934.4 18.1253 1933.87 18.624V32H1923.62V6.48H1924.37H1933.87V10.044C1935.75 7.69733 1939.36 6.524 1944.7 6.524ZM1978.45 1.112H2001.15C2001.74 1.112 2002.3 1.12667 2002.82 1.156C2003.35 1.18533 2004.09 1.288 2005.02 1.464C2005.99 1.61067 2006.86 1.83067 2007.62 2.124C2008.41 2.388 2009.25 2.81333 2010.13 3.4C2011.01 3.95733 2011.74 4.632 2012.33 5.424C2012.94 6.18667 2013.44 7.16933 2013.82 8.372C2014.23 9.57467 2014.44 10.9387 2014.44 12.464C2014.44 17.3333 2012.55 20.8093 2008.76 22.892L2015.1 32L2003.26 31.956L1997.98 24.696H1988.7V32H1978.45V1.112ZM2000.18 15.676C2002.74 15.676 2004.01 14.708 2004.01 12.772C2004.01 11.012 2002.68 10.132 2000.01 10.132H1988.7V15.676H2000.18ZM2017.6 6.524H2027.85V32H2017.6V6.524ZM2017.6 -0.428002H2027.85V4.544H2017.6V-0.428002ZM2058.73 1.2H2068.94V32H2058.73V29.272C2055.95 31.2373 2052 32.22 2046.9 32.22C2045.66 32.22 2044.55 32.176 2043.55 32.088C2042.56 32.0293 2041.47 31.8973 2040.3 31.692C2039.12 31.4573 2038.08 31.1493 2037.17 30.768C2036.26 30.3867 2035.37 29.8587 2034.49 29.184C2033.61 28.5093 2032.88 27.732 2032.29 26.852C2031.73 25.9427 2031.28 24.828 2030.92 23.508C2030.57 22.1587 2030.4 20.6627 2030.4 19.02C2030.4 16.9667 2030.84 15.1333 2031.72 13.52C2032.63 11.8773 2033.84 10.572 2035.37 9.604C2036.89 8.60667 2038.61 7.85867 2040.52 7.36C2042.45 6.832 2044.51 6.568 2046.68 6.568C2051.14 6.568 2055.15 7.46267 2058.73 9.252V1.2ZM2058.73 21.308V17.832C2057.79 15.3093 2054.32 14.048 2048.3 14.048C2048.28 14.048 2048.22 14.048 2048.13 14.048C2047.75 14.048 2047.44 14.048 2047.2 14.048C2047 14.048 2046.66 14.0773 2046.19 14.136C2045.75 14.1653 2045.37 14.224 2045.05 14.312C2044.76 14.4 2044.39 14.532 2043.95 14.708C2043.54 14.8547 2043.19 15.06 2042.89 15.324C2042.63 15.588 2042.36 15.896 2042.1 16.248C2041.84 16.6 2041.63 17.04 2041.48 17.568C2041.37 18.096 2041.31 18.6827 2041.31 19.328C2041.31 22.8187 2043.85 24.564 2048.92 24.564C2051.77 24.564 2053.89 24.3587 2055.3 23.948C2056.74 23.508 2057.88 22.628 2058.73 21.308ZM2089.48 5.908C2092.51 5.908 2095.13 6.172 2097.36 6.7C2099.59 7.228 2101.53 8.09333 2103.17 9.296C2104.81 10.4987 2106.01 12.1413 2106.78 14.224C2107.54 16.2773 2107.8 18.756 2107.57 21.66H2081.43C2081.58 22.452 2082.3 23.0973 2083.59 23.596C2084.88 24.0947 2086.82 24.344 2089.4 24.344C2091.66 24.344 2093.9 24.1973 2096.13 23.904C2098.39 23.6107 2100.09 23.3173 2101.23 23.024L2102.9 22.584L2107.3 29.712C2107.22 29.7707 2107.06 29.8587 2106.82 29.976C2106.59 30.064 2105.98 30.24 2105.02 30.504C2104.08 30.768 2103.01 31.0027 2101.8 31.208C2100.6 31.4133 2098.93 31.604 2096.79 31.78C2094.65 31.9267 2092.3 32 2089.75 32C2086.76 32 2084.15 31.7947 2081.92 31.384C2079.72 30.9733 2077.91 30.4013 2076.5 29.668C2075.13 28.9347 2074.01 28.0107 2073.16 26.896C2072.31 25.7813 2071.72 24.5933 2071.4 23.332C2071.08 22.0707 2070.92 20.604 2070.92 18.932C2070.92 14.8253 2072.47 11.628 2075.58 9.34C2078.72 7.052 2083.35 5.908 2089.48 5.908ZM2089.57 13.784C2087.96 13.784 2086.58 13.9013 2085.44 14.136C2084.29 14.3707 2083.46 14.6787 2082.93 15.06C2082.4 15.412 2082.02 15.764 2081.78 16.116C2081.55 16.468 2081.43 16.82 2081.43 17.172H2097.18C2097.18 16.204 2096.6 15.3973 2095.42 14.752C2094.28 14.1067 2092.33 13.784 2089.57 13.784ZM2130.62 6.524C2134.79 6.524 2138.15 7.36 2140.7 9.032C2140.9 9.14933 2141.02 9.22267 2141.05 9.252L2137.22 17.084C2136.96 16.9373 2136.58 16.7613 2136.08 16.556C2135.58 16.3213 2134.64 16.0133 2133.26 15.632C2131.88 15.2507 2130.58 15.016 2129.35 14.928C2128.26 14.8693 2127.23 14.928 2126.27 15.104C2125.3 15.28 2124.53 15.4707 2123.98 15.676C2123.42 15.852 2122.79 16.1893 2122.09 16.688C2121.41 17.1573 2120.99 17.48 2120.81 17.656C2120.66 17.8027 2120.33 18.1253 2119.8 18.624V32H2109.55V6.48H2110.29H2119.8V10.044C2121.67 7.69733 2125.28 6.524 2130.62 6.524ZM2157.85 16.116C2160.88 16.116 2163.35 16.1893 2165.29 16.336C2167.26 16.4827 2168.96 16.7173 2170.39 17.04C2171.86 17.3627 2172.96 17.8467 2173.69 18.492C2174.46 19.1373 2175 19.9147 2175.32 20.824C2175.67 21.704 2175.85 22.8333 2175.85 24.212C2175.85 25.4147 2175.76 26.4267 2175.59 27.248C2175.44 28.04 2175.12 28.788 2174.62 29.492C2174.12 30.1667 2173.46 30.7093 2172.64 31.12C2171.85 31.5307 2170.76 31.8827 2169.38 32.176C2168.03 32.4693 2166.43 32.6747 2164.59 32.792C2162.77 32.9093 2160.57 32.968 2157.99 32.968C2149.04 32.968 2143.77 32.2347 2142.19 30.768L2145.05 23.464C2145.75 23.9333 2147.49 24.3293 2150.24 24.652C2153 24.9453 2155.71 25.092 2158.38 25.092C2158.85 25.092 2159.5 25.092 2160.32 25.092C2162.75 25.092 2164.35 25.0627 2165.11 25.004C2165.88 24.916 2166.26 24.696 2166.26 24.344C2166.26 23.376 2163.41 22.892 2157.72 22.892C2155.41 22.892 2153.43 22.8333 2151.78 22.716C2150.17 22.5693 2148.66 22.32 2147.25 21.968C2145.87 21.616 2144.77 21.1467 2143.95 20.56C2143.13 19.944 2142.48 19.1667 2142.01 18.228C2141.57 17.26 2141.35 16.116 2141.35 14.796C2141.35 13.828 2141.43 12.9627 2141.57 12.2C2141.75 11.4373 2142.03 10.7773 2142.41 10.22C2142.79 9.63333 2143.22 9.13466 2143.69 8.724C2144.16 8.284 2144.77 7.91733 2145.53 7.624C2146.33 7.33067 2147.12 7.096 2147.91 6.92C2148.73 6.744 2149.74 6.612 2150.95 6.524C2152.15 6.436 2153.32 6.37733 2154.47 6.348C2155.61 6.28933 2156.99 6.26 2158.6 6.26C2162.18 6.26 2165.09 6.37733 2167.31 6.612C2169.57 6.84667 2171.19 7.12533 2172.15 7.448C2173.15 7.77066 2174.21 8.22533 2175.32 8.812L2172.15 15.808C2170.78 15.3093 2168.71 14.884 2165.95 14.532C2163.22 14.1507 2160.55 13.96 2157.94 13.96C2157.71 13.96 2157.37 13.96 2156.93 13.96C2154.5 13.96 2152.93 14.004 2152.22 14.092C2151.52 14.18 2151.17 14.444 2151.17 14.884C2151.2 15.7053 2153.43 16.116 2157.85 16.116ZM2243.57 17.832C2243.52 17.9493 2243.43 18.1107 2243.31 18.316C2243.19 18.5213 2242.91 18.932 2242.47 19.548C2242.03 20.164 2241.55 20.78 2241.02 21.396C2240.52 22.012 2239.83 22.7453 2238.95 23.596C2238.1 24.4173 2237.18 25.18 2236.18 25.884L2243.57 32H2231.39L2228.7 29.888C2224.86 31.296 2220.68 32 2216.16 32C2210.12 32 2205.5 30.7533 2202.3 28.26C2199.84 26.3533 2198.84 24.1973 2199.31 21.792C2199.81 19.1813 2201.98 16.9813 2205.82 15.192C2206.64 14.8107 2207.52 14.4587 2208.46 14.136C2206.32 12.9627 2204.88 11.4373 2204.15 9.56C2203.3 7.24266 2203.9 5.32133 2205.95 3.796C2208.33 2.06533 2212.3 1.2 2217.88 1.2C2225.5 1.2 2229.36 3.312 2229.45 7.536C2229.45 9.09067 2228.86 10.44 2227.69 11.584C2226.52 12.728 2224.89 13.7987 2222.81 14.796L2230.02 20.78C2231.02 19.9 2231.83 18.9173 2232.44 17.832H2243.57ZM2219.68 7.712C2219.68 7.21333 2219.18 6.86133 2218.19 6.656C2217.19 6.42133 2216.19 6.436 2215.19 6.7C2214.2 6.93467 2213.7 7.36 2213.7 7.976C2213.7 8.328 2213.93 8.724 2214.4 9.164C2214.87 9.604 2215.36 9.956 2215.85 10.22L2216.56 10.616C2216.59 10.616 2216.63 10.6013 2216.69 10.572C2216.78 10.5133 2216.92 10.44 2217.13 10.352C2217.36 10.2347 2217.58 10.1173 2217.79 10C2218 9.85333 2218.22 9.692 2218.45 9.516C2218.68 9.34 2218.89 9.164 2219.07 8.988C2219.24 8.812 2219.39 8.62133 2219.51 8.416C2219.62 8.18133 2219.68 7.94667 2219.68 7.712ZM2210.44 22.188C2210.44 23.0093 2211 23.684 2212.11 24.212C2213.26 24.7107 2214.68 24.9893 2216.38 25.048C2218.08 25.1067 2219.93 24.9453 2221.93 24.564L2214.18 18.448C2211.69 19.68 2210.44 20.9267 2210.44 22.188ZM2298.93 1.112H2310.68L2295.54 32H2282.12L2266.9 1.112H2278.64L2288.81 22.98L2298.93 1.112ZM2324.82 5.908C2327.85 5.908 2330.47 6.172 2332.7 6.7C2334.93 7.228 2336.87 8.09333 2338.51 9.296C2340.15 10.4987 2341.35 12.1413 2342.12 14.224C2342.88 16.2773 2343.14 18.756 2342.91 21.66H2316.77C2316.92 22.452 2317.64 23.0973 2318.93 23.596C2320.22 24.0947 2322.16 24.344 2324.74 24.344C2327 24.344 2329.24 24.1973 2331.47 23.904C2333.73 23.6107 2335.43 23.3173 2336.57 23.024L2338.24 22.584L2342.64 29.712C2342.56 29.7707 2342.4 29.8587 2342.16 29.976C2341.93 30.064 2341.32 30.24 2340.36 30.504C2339.42 30.768 2338.35 31.0027 2337.14 31.208C2335.94 31.4133 2334.27 31.604 2332.13 31.78C2329.99 31.9267 2327.64 32 2325.09 32C2322.1 32 2319.49 31.7947 2317.26 31.384C2315.06 30.9733 2313.25 30.4013 2311.84 29.668C2310.47 28.9347 2309.35 28.0107 2308.5 26.896C2307.65 25.7813 2307.06 24.5933 2306.74 23.332C2306.42 22.0707 2306.26 20.604 2306.26 18.932C2306.26 14.8253 2307.81 11.628 2310.92 9.34C2314.06 7.052 2318.69 5.908 2324.82 5.908ZM2324.91 13.784C2323.3 13.784 2321.92 13.9013 2320.78 14.136C2319.63 14.3707 2318.8 14.6787 2318.27 15.06C2317.74 15.412 2317.36 15.764 2317.12 16.116C2316.89 16.468 2316.77 16.82 2316.77 17.172H2332.52C2332.52 16.204 2331.94 15.3973 2330.76 14.752C2329.62 14.1067 2327.67 13.784 2324.91 13.784ZM2378.11 11.716C2378.82 13.3 2379.24 15.3387 2379.39 17.832C2379.56 20.296 2379.65 24.344 2379.65 29.976V32H2369.4V23.596C2369.4 23.508 2369.4 23.376 2369.4 23.2C2369.4 22.6427 2369.4 22.2173 2369.4 21.924C2369.4 21.6013 2369.37 21.1467 2369.31 20.56C2369.28 19.9733 2369.22 19.5187 2369.14 19.196C2369.08 18.844 2368.96 18.4187 2368.78 17.92C2368.64 17.392 2368.45 16.9813 2368.21 16.688C2368.01 16.3653 2367.73 16.028 2367.38 15.676C2367.05 15.324 2366.67 15.0453 2366.23 14.84C2365.79 14.6347 2365.26 14.4733 2364.65 14.356C2364.03 14.2093 2363.36 14.136 2362.62 14.136C2360.75 14.136 2359.24 14.4147 2358.09 14.972C2356.98 15.5 2355.94 16.2627 2354.97 17.26V32H2344.63V6.524H2354.97V10.044C2355.91 9.36933 2356.62 8.88533 2357.12 8.592C2357.65 8.26933 2358.37 7.90266 2359.28 7.492C2360.22 7.052 2361.23 6.744 2362.32 6.568C2363.4 6.392 2364.65 6.304 2366.06 6.304C2367.43 6.304 2368.65 6.36266 2369.71 6.48C2370.76 6.59733 2371.86 6.832 2373.01 7.184C2374.18 7.536 2375.19 8.09333 2376.04 8.856C2376.92 9.61867 2377.61 10.572 2378.11 11.716ZM2409.7 1.2H2419.91V32H2409.7V29.272C2406.92 31.2373 2402.97 32.22 2397.87 32.22C2396.63 32.22 2395.52 32.176 2394.52 32.088C2393.52 32.0293 2392.44 31.8973 2391.27 31.692C2390.09 31.4573 2389.05 31.1493 2388.14 30.768C2387.23 30.3867 2386.34 29.8587 2385.46 29.184C2384.58 28.5093 2383.84 27.732 2383.26 26.852C2382.7 25.9427 2382.25 24.828 2381.89 23.508C2381.54 22.1587 2381.37 20.6627 2381.37 19.02C2381.37 16.9667 2381.81 15.1333 2382.69 13.52C2383.6 11.8773 2384.81 10.572 2386.34 9.604C2387.86 8.60667 2389.58 7.85867 2391.49 7.36C2393.42 6.832 2395.48 6.568 2397.65 6.568C2402.1 6.568 2406.12 7.46267 2409.7 9.252V1.2ZM2409.7 21.308V17.832C2408.76 15.3093 2405.29 14.048 2399.27 14.048C2399.24 14.048 2399.19 14.048 2399.1 14.048C2398.72 14.048 2398.41 14.048 2398.17 14.048C2397.97 14.048 2397.63 14.0773 2397.16 14.136C2396.72 14.1653 2396.34 14.224 2396.02 14.312C2395.72 14.4 2395.36 14.532 2394.92 14.708C2394.51 14.8547 2394.16 15.06 2393.86 15.324C2393.6 15.588 2393.33 15.896 2393.07 16.248C2392.81 16.6 2392.6 17.04 2392.45 17.568C2392.34 18.096 2392.28 18.6827 2392.28 19.328C2392.28 22.8187 2394.82 24.564 2399.89 24.564C2402.74 24.564 2404.86 24.3587 2406.27 23.948C2407.71 23.508 2408.85 22.628 2409.7 21.308ZM2439.89 6.348C2442.07 6.348 2444.02 6.45067 2445.75 6.656C2447.48 6.832 2449.21 7.21333 2450.94 7.8C2452.67 8.35733 2454.11 9.10533 2455.25 10.044C2456.39 10.9827 2457.32 12.244 2458.02 13.828C2458.73 15.3827 2459.08 17.216 2459.08 19.328C2459.08 21.7333 2458.64 23.7867 2457.76 25.488C2456.91 27.1893 2455.63 28.5387 2453.93 29.536C2452.23 30.504 2450.26 31.208 2448.03 31.648C2445.81 32.0587 2443.18 32.264 2440.16 32.264C2437.08 32.264 2434.42 32.044 2432.19 31.604C2429.97 31.164 2428.03 30.46 2426.39 29.492C2424.74 28.4947 2423.51 27.16 2422.69 25.488C2421.9 23.7867 2421.5 21.7333 2421.5 19.328C2421.5 17.2747 2421.83 15.4707 2422.47 13.916C2423.15 12.3613 2424.03 11.1147 2425.11 10.176C2426.2 9.23733 2427.55 8.47467 2429.16 7.888C2430.77 7.30133 2432.43 6.90533 2434.13 6.7C2435.86 6.46533 2437.78 6.348 2439.89 6.348ZM2440.25 25.048C2442.83 25.048 2444.79 24.6227 2446.14 23.772C2447.52 22.892 2448.21 21.4107 2448.21 19.328C2448.21 18.184 2447.95 17.216 2447.42 16.424C2446.89 15.6027 2446.19 15.0013 2445.31 14.62C2444.46 14.2387 2443.61 13.9747 2442.75 13.828C2441.93 13.652 2441.05 13.564 2440.11 13.564C2439.44 13.564 2438.77 13.6227 2438.09 13.74C2437.42 13.828 2436.73 14.004 2436.02 14.268C2435.32 14.532 2434.7 14.8693 2434.17 15.28C2433.68 15.6907 2433.25 16.2333 2432.9 16.908C2432.58 17.5533 2432.41 18.2867 2432.41 19.108C2432.41 21.132 2433.05 22.628 2434.31 23.596C2435.6 24.564 2437.58 25.048 2440.25 25.048ZM2481.81 6.524C2485.97 6.524 2489.33 7.36 2491.88 9.032C2492.09 9.14933 2492.2 9.22267 2492.23 9.252L2488.41 17.084C2488.14 16.9373 2487.76 16.7613 2487.26 16.556C2486.76 16.3213 2485.82 16.0133 2484.45 15.632C2483.07 15.2507 2481.76 15.016 2480.53 14.928C2479.44 14.8693 2478.42 14.928 2477.45 15.104C2476.48 15.28 2475.72 15.4707 2475.16 15.676C2474.6 15.852 2473.97 16.1893 2473.27 16.688C2472.59 17.1573 2472.17 17.48 2471.99 17.656C2471.85 17.8027 2471.51 18.1253 2470.98 18.624V32H2460.73V6.48H2461.48H2470.98V10.044C2472.86 7.69733 2476.47 6.524 2481.81 6.524ZM2509.04 16.116C2512.06 16.116 2514.54 16.1893 2516.47 16.336C2518.44 16.4827 2520.14 16.7173 2521.58 17.04C2523.04 17.3627 2524.14 17.8467 2524.88 18.492C2525.64 19.1373 2526.18 19.9147 2526.51 20.824C2526.86 21.704 2527.03 22.8333 2527.03 24.212C2527.03 25.4147 2526.95 26.4267 2526.77 27.248C2526.62 28.04 2526.3 28.788 2525.8 29.492C2525.3 30.1667 2524.64 30.7093 2523.82 31.12C2523.03 31.5307 2521.94 31.8827 2520.57 32.176C2519.22 32.4693 2517.62 32.6747 2515.77 32.792C2513.95 32.9093 2511.75 32.968 2509.17 32.968C2500.22 32.968 2494.96 32.2347 2493.37 30.768L2496.23 23.464C2496.94 23.9333 2498.67 24.3293 2501.43 24.652C2504.18 24.9453 2506.9 25.092 2509.57 25.092C2510.04 25.092 2510.68 25.092 2511.5 25.092C2513.94 25.092 2515.54 25.0627 2516.3 25.004C2517.06 24.916 2517.44 24.696 2517.44 24.344C2517.44 23.376 2514.6 22.892 2508.91 22.892C2506.59 22.892 2504.61 22.8333 2502.97 22.716C2501.35 22.5693 2499.84 22.32 2498.43 21.968C2497.06 21.616 2495.96 21.1467 2495.13 20.56C2494.31 19.944 2493.67 19.1667 2493.2 18.228C2492.76 17.26 2492.54 16.116 2492.54 14.796C2492.54 13.828 2492.61 12.9627 2492.76 12.2C2492.93 11.4373 2493.21 10.7773 2493.59 10.22C2493.98 9.63333 2494.4 9.13466 2494.87 8.724C2495.34 8.284 2495.96 7.91733 2496.72 7.624C2497.51 7.33067 2498.3 7.096 2499.09 6.92C2499.92 6.744 2500.93 6.612 2502.13 6.524C2503.33 6.436 2504.51 6.37733 2505.65 6.348C2506.79 6.28933 2508.17 6.26 2509.79 6.26C2513.36 6.26 2516.27 6.37733 2518.5 6.612C2520.76 6.84667 2522.37 7.12533 2523.34 7.448C2524.34 7.77066 2525.39 8.22533 2526.51 8.812L2523.34 15.808C2521.96 15.3093 2519.89 14.884 2517.13 14.532C2514.41 14.1507 2511.74 13.96 2509.13 13.96C2508.89 13.96 2508.55 13.96 2508.11 13.96C2505.68 13.96 2504.11 14.004 2503.41 14.092C2502.7 14.18 2502.35 14.444 2502.35 14.884C2502.38 15.7053 2504.61 16.116 2509.04 16.116Z" fill="#F08F00"/>
</g>
<defs>
<clipPath id="clip0_3142_8462">
<rect width="1767" height="43" fill="white" transform="translate(-19.5)"/>
</clipPath>
</defs>
</svg>
